<?xml version="1.0" encoding="UTF-8" standalone="no"?>
<!DOCTYPE svg PUBLIC "-//W3C//DTD SVG 1.1//EN"
 "http://www.w3.org/Graphics/SVG/1.1/DTD/svg11.dtd">
<!-- Generated by graphviz version 2.40.1 (20161225.0304)
 -->
<!-- Title: dependencies Pages: 1 -->
<svg width="715pt" height="284pt"
 viewBox="0.00 0.00 715.00 284.00" xmlns="http://www.w3.org/2000/svg" xmlns:xlink="http://www.w3.org/1999/xlink">
<g id="graph0" class="graph" transform="scale(1 1) rotate(0) translate(4 280)">
<title>dependencies</title>
<polygon fill="#ffffff" stroke="transparent" points="-4,4 -4,-280 711,-280 711,4 -4,4"/>
<text text-anchor="start" x="332.5091" y="-42.4" font-family="sans-serif" font-weight="bold" font-size="14.00" fill="#000000">Legend</text>
<polygon fill="#ffffb3" stroke="transparent" points="119.5,-10 119.5,-30 139.5,-30 139.5,-10 119.5,-10"/>
<text text-anchor="start" x="143.129" y="-15.4" font-family="sans-serif" font-size="14.00" fill="#000000"> &#160;Declarations</text>
<polygon fill="#8dd3c7" stroke="transparent" points="232.5,-10 232.5,-30 252.5,-30 252.5,-10 232.5,-10"/>
<text text-anchor="start" x="256.2251" y="-15.4" font-family="sans-serif" font-size="14.00" fill="#000000"> &#160;Module</text>
<polygon fill="#80b1d3" stroke="transparent" points="318.5,-10 318.5,-30 338.5,-30 338.5,-10 318.5,-10"/>
<text text-anchor="start" x="342.2812" y="-15.4" font-family="sans-serif" font-size="14.00" fill="#000000"> &#160;Bootstrap</text>
<polygon fill="#fdb462" stroke="transparent" points="415.5,-10 415.5,-30 435.5,-30 435.5,-10 415.5,-10"/>
<text text-anchor="start" x="439.1732" y="-15.4" font-family="sans-serif" font-size="14.00" fill="#000000"> &#160;Providers</text>
<polygon fill="#fb8072" stroke="transparent" points="511.5,-10 511.5,-30 531.5,-30 531.5,-10 511.5,-10"/>
<text text-anchor="start" x="535.2258" y="-15.4" font-family="sans-serif" font-size="14.00" fill="#000000"> &#160;Exports</text>
<g id="clust1" class="cluster">
<title>cluster_SampleModule</title>
<polygon fill="none" stroke="#000000" stroke-dasharray="1,5" points="8,-70 8,-268 699,-268 699,-70 8,-70"/>
</g>
<g id="clust2" class="cluster">
<title>cluster_SampleModule_declarations</title>
<polygon fill="none" stroke="#000000" points="330,-78 330,-130 691,-130 691,-78 330,-78"/>
</g>
<g id="clust6" class="cluster">
<title>cluster_SampleModule_imports</title>
<polygon fill="none" stroke="#000000" points="16,-78 16,-130 322,-130 322,-78 16,-78"/>
</g>
<g id="clust7" class="cluster">
<title>cluster_SampleModule_exports</title>
<polygon fill="none" stroke="#000000" points="203,-208 203,-260 575,-260 575,-208 203,-208"/>
</g>
<!-- SampleComponent -->
<g id="node1" class="node">
<title>SampleComponent</title>
<polygon fill="#ffffb3" stroke="#000000" points="682.8258,-122 559.1742,-122 559.1742,-86 682.8258,-86 682.8258,-122"/>
<text text-anchor="middle" x="621" y="-99.8" font-family="Times,serif" font-size="14.00" fill="#000000">SampleComponent</text>
</g>
<!-- SampleModule -->
<g id="node4" class="node">
<title>SampleModule</title>
<polygon fill="#8dd3c7" stroke="#000000" points="429.5438,-187 426.5438,-191 405.5438,-191 402.5438,-187 328.4562,-187 328.4562,-151 429.5438,-151 429.5438,-187"/>
<text text-anchor="middle" x="379" y="-164.8" font-family="Times,serif" font-size="14.00" fill="#000000">SampleModule</text>
</g>
<!-- SampleComponent&#45;&gt;SampleModule -->
<g id="edge1" class="edge">
<title>SampleComponent&#45;&gt;SampleModule</title>
<path fill="none" stroke="#000000" d="M563.3175,-122.0225C563.3175,-139.3734 563.3175,-163 563.3175,-163 563.3175,-163 439.8535,-163 439.8535,-163"/>
<polygon fill="#000000" stroke="#000000" points="439.8535,-159.5001 429.8535,-163 439.8534,-166.5001 439.8535,-159.5001"/>
</g>
<!-- FormInputBase -->
<g id="node2" class="node">
<title>FormInputBase</title>
<polygon fill="#ffffb3" stroke="#000000" points="541.5954,-122 438.4046,-122 438.4046,-86 541.5954,-86 541.5954,-122"/>
<text text-anchor="middle" x="490" y="-99.8" font-family="Times,serif" font-size="14.00" fill="#000000">FormInputBase</text>
</g>
<!-- FormInputBase&#45;&gt;SampleModule -->
<g id="edge2" class="edge">
<title>FormInputBase&#45;&gt;SampleModule</title>
<path fill="none" stroke="#000000" d="M438.2382,-104C430.5283,-104 425.1059,-104 425.1059,-104 425.1059,-104 425.1059,-140.8939 425.1059,-140.8939"/>
<polygon fill="#000000" stroke="#000000" points="421.606,-140.8938 425.1059,-150.8939 428.606,-140.8939 421.606,-140.8938"/>
</g>
<!-- SamplePipe -->
<g id="node3" class="node">
<title>SamplePipe</title>
<polygon fill="#ffffb3" stroke="#000000" points="420.3809,-122 337.6191,-122 337.6191,-86 420.3809,-86 420.3809,-122"/>
<text text-anchor="middle" x="379" y="-99.8" font-family="Times,serif" font-size="14.00" fill="#000000">SamplePipe</text>
</g>
<!-- SamplePipe&#45;&gt;SampleModule -->
<g id="edge3" class="edge">
<title>SamplePipe&#45;&gt;SampleModule</title>
<path fill="none" stroke="#000000" d="M379,-122.1061C379,-122.1061 379,-140.991 379,-140.991"/>
<polygon fill="#000000" stroke="#000000" points="375.5001,-140.9909 379,-150.991 382.5001,-140.991 375.5001,-140.9909"/>
</g>
<!-- FormInputBase  -->
<g id="node7" class="node">
<title>FormInputBase </title>
<polygon fill="#fb8072" stroke="#000000" points="567.0962,-252 460.9038,-252 460.9038,-216 567.0962,-216 567.0962,-252"/>
<text text-anchor="middle" x="514" y="-229.8" font-family="Times,serif" font-size="14.00" fill="#000000">FormInputBase </text>
</g>
<!-- SampleModule&#45;&gt;FormInputBase  -->
<g id="edge6" class="edge">
<title>SampleModule&#45;&gt;FormInputBase </title>
<path fill="none" stroke="#000000" stroke-dasharray="5,2" d="M429.731,-175C463.2847,-175 501.125,-175 501.125,-175 501.125,-175 501.125,-205.9775 501.125,-205.9775"/>
<polygon fill="#000000" stroke="#000000" points="497.6251,-205.9774 501.125,-215.9775 504.6251,-205.9775 497.6251,-205.9774"/>
</g>
<!-- SampleComponent  -->
<g id="node8" class="node">
<title>SampleComponent </title>
<polygon fill="#fb8072" stroke="#000000" points="442.3255,-252 315.6745,-252 315.6745,-216 442.3255,-216 442.3255,-252"/>
<text text-anchor="middle" x="379" y="-229.8" font-family="Times,serif" font-size="14.00" fill="#000000">SampleComponent </text>
</g>
<!-- SampleModule&#45;&gt;SampleComponent  -->
<g id="edge7" class="edge">
<title>SampleModule&#45;&gt;SampleComponent </title>
<path fill="none" stroke="#000000" stroke-dasharray="5,2" d="M379,-187.1061C379,-187.1061 379,-205.991 379,-205.991"/>
<polygon fill="#000000" stroke="#000000" points="375.5001,-205.9909 379,-215.991 382.5001,-205.991 375.5001,-205.9909"/>
</g>
<!-- SamplePipe  -->
<g id="node9" class="node">
<title>SamplePipe </title>
<polygon fill="#fb8072" stroke="#000000" points="297.3816,-252 210.6184,-252 210.6184,-216 297.3816,-216 297.3816,-252"/>
<text text-anchor="middle" x="254" y="-229.8" font-family="Times,serif" font-size="14.00" fill="#000000">SamplePipe </text>
</g>
<!-- SampleModule&#45;&gt;SamplePipe  -->
<g id="edge8" class="edge">
<title>SampleModule&#45;&gt;SamplePipe </title>
<path fill="none" stroke="#000000" stroke-dasharray="5,2" d="M328.1577,-175C293.5508,-175 254,-175 254,-175 254,-175 254,-205.9775 254,-205.9775"/>
<polygon fill="#000000" stroke="#000000" points="250.5001,-205.9774 254,-215.9775 257.5001,-205.9775 250.5001,-205.9774"/>
</g>
<!-- CommonModule -->
<g id="node5" class="node">
<title>CommonModule</title>
<polygon fill="#8dd3c7" stroke="#000000" points="313.6681,-122 310.6681,-126 289.6681,-126 286.6681,-122 202.3319,-122 202.3319,-86 313.6681,-86 313.6681,-122"/>
<text text-anchor="middle" x="258" y="-99.8" font-family="Times,serif" font-size="14.00" fill="#000000">CommonModule</text>
</g>
<!-- CommonModule&#45;&gt;SampleModule -->
<g id="edge4" class="edge">
<title>CommonModule&#45;&gt;SampleModule</title>
<path fill="none" stroke="#000000" d="M313.9952,-104C324.8306,-104 332.8941,-104 332.8941,-104 332.8941,-104 332.8941,-140.8939 332.8941,-140.8939"/>
<polygon fill="#000000" stroke="#000000" points="329.3942,-140.8938 332.8941,-150.8939 336.3942,-140.8939 329.3942,-140.8938"/>
</g>
<!-- AmexioTextInputModule -->
<g id="node6" class="node">
<title>AmexioTextInputModule</title>
<polygon fill="#8dd3c7" stroke="#000000" points="183.8613,-122 180.8613,-126 159.8613,-126 156.8613,-122 24.1387,-122 24.1387,-86 183.8613,-86 183.8613,-122"/>
<text text-anchor="middle" x="104" y="-99.8" font-family="Times,serif" font-size="14.00" fill="#000000">AmexioTextInputModule</text>
</g>
<!-- AmexioTextInputModule&#45;&gt;SampleModule -->
<g id="edge5" class="edge">
<title>AmexioTextInputModule&#45;&gt;SampleModule</title>
<path fill="none" stroke="#000000" d="M104,-122.0225C104,-139.3734 104,-163 104,-163 104,-163 318.2403,-163 318.2403,-163"/>
<polygon fill="#000000" stroke="#000000" points="318.2403,-166.5001 328.2403,-163 318.2402,-159.5001 318.2403,-166.5001"/>
</g>
</g>
</svg>
