<?xml version="1.0" encoding="UTF-8" standalone="no"?>
<!DOCTYPE svg PUBLIC "-//W3C//DTD SVG 1.1//EN"
 "http://www.w3.org/Graphics/SVG/1.1/DTD/svg11.dtd">
<!-- Generated by graphviz version 2.40.1 (20161225.0304)
 -->
<!-- Title: dependencies Pages: 1 -->
<svg width="781pt" height="349pt"
 viewBox="0.00 0.00 781.00 349.00" xmlns="http://www.w3.org/2000/svg" xmlns:xlink="http://www.w3.org/1999/xlink">
<g id="graph0" class="graph" transform="scale(1 1) rotate(0) translate(4 345)">
<title>dependencies</title>
<polygon fill="#ffffff" stroke="transparent" points="-4,4 -4,-345 777,-345 777,4 -4,4"/>
<text text-anchor="start" x="365.5091" y="-42.4" font-family="sans-serif" font-weight="bold" font-size="14.00" fill="#000000">Legend</text>
<polygon fill="#ffffb3" stroke="transparent" points="152.5,-10 152.5,-30 172.5,-30 172.5,-10 152.5,-10"/>
<text text-anchor="start" x="176.129" y="-15.4" font-family="sans-serif" font-size="14.00" fill="#000000"> &#160;Declarations</text>
<polygon fill="#8dd3c7" stroke="transparent" points="265.5,-10 265.5,-30 285.5,-30 285.5,-10 265.5,-10"/>
<text text-anchor="start" x="289.2251" y="-15.4" font-family="sans-serif" font-size="14.00" fill="#000000"> &#160;Module</text>
<polygon fill="#80b1d3" stroke="transparent" points="351.5,-10 351.5,-30 371.5,-30 371.5,-10 351.5,-10"/>
<text text-anchor="start" x="375.2812" y="-15.4" font-family="sans-serif" font-size="14.00" fill="#000000"> &#160;Bootstrap</text>
<polygon fill="#fdb462" stroke="transparent" points="448.5,-10 448.5,-30 468.5,-30 468.5,-10 448.5,-10"/>
<text text-anchor="start" x="472.1732" y="-15.4" font-family="sans-serif" font-size="14.00" fill="#000000"> &#160;Providers</text>
<polygon fill="#fb8072" stroke="transparent" points="544.5,-10 544.5,-30 564.5,-30 564.5,-10 544.5,-10"/>
<text text-anchor="start" x="568.2258" y="-15.4" font-family="sans-serif" font-size="14.00" fill="#000000"> &#160;Exports</text>
<g id="clust1" class="cluster">
<title>cluster_AmexioTextInputModule</title>
<polygon fill="none" stroke="#000000" stroke-dasharray="1,5" points="8,-70 8,-333 765,-333 765,-70 8,-70"/>
</g>
<g id="clust2" class="cluster">
<title>cluster_AmexioTextInputModule_declarations</title>
<polygon fill="none" stroke="#000000" points="355,-143 355,-195 507,-195 507,-143 355,-143"/>
</g>
<g id="clust3" class="cluster">
<title>cluster_AmexioTextInputModule_TextInputComponent_providers</title>
<polygon fill="none" stroke="#000000" points="16,-78 16,-130 757,-130 757,-78 16,-78"/>
</g>
<g id="clust4" class="cluster">
<title>cluster_AmexioTextInputModule_imports</title>
<polygon fill="none" stroke="#000000" points="106,-143 106,-195 347,-195 347,-143 106,-143"/>
</g>
<g id="clust5" class="cluster">
<title>cluster_AmexioTextInputModule_exports</title>
<polygon fill="none" stroke="#000000" points="205,-273 205,-325 361,-325 361,-273 205,-273"/>
</g>
<!-- TextInputComponent -->
<g id="node1" class="node">
<title>TextInputComponent</title>
<polygon fill="#ffffb3" stroke="#000000" points="499.0422,-187 362.9578,-187 362.9578,-151 499.0422,-151 499.0422,-187"/>
<text text-anchor="middle" x="431" y="-164.8" font-family="Times,serif" font-size="14.00" fill="#000000">TextInputComponent</text>
</g>
<!-- AmexioTextInputModule -->
<g id="node2" class="node">
<title>AmexioTextInputModule</title>
<polygon fill="#8dd3c7" stroke="#000000" points="362.8613,-252 359.8613,-256 338.8613,-256 335.8613,-252 203.1387,-252 203.1387,-216 362.8613,-216 362.8613,-252"/>
<text text-anchor="middle" x="283" y="-229.8" font-family="Times,serif" font-size="14.00" fill="#000000">AmexioTextInputModule</text>
</g>
<!-- TextInputComponent&#45;&gt;AmexioTextInputModule -->
<g id="edge1" class="edge">
<title>TextInputComponent&#45;&gt;AmexioTextInputModule</title>
<path fill="none" stroke="#000000" d="M362.6181,-169C355.4867,-169 350.7816,-169 350.7816,-169 350.7816,-169 350.7816,-205.8939 350.7816,-205.8939"/>
<polygon fill="#000000" stroke="#000000" points="347.2816,-205.8938 350.7816,-215.8939 354.2816,-205.8939 347.2816,-205.8938"/>
</g>
<!-- TextInputComponent  -->
<g id="node7" class="node">
<title>TextInputComponent </title>
<polygon fill="#fb8072" stroke="#000000" points="353.0414,-317 212.9586,-317 212.9586,-281 353.0414,-281 353.0414,-317"/>
<text text-anchor="middle" x="283" y="-294.8" font-family="Times,serif" font-size="14.00" fill="#000000">TextInputComponent </text>
</g>
<!-- AmexioTextInputModule&#45;&gt;TextInputComponent  -->
<g id="edge6" class="edge">
<title>AmexioTextInputModule&#45;&gt;TextInputComponent </title>
<path fill="none" stroke="#000000" stroke-dasharray="5,2" d="M283,-252.1061C283,-252.1061 283,-270.991 283,-270.991"/>
<polygon fill="#000000" stroke="#000000" points="279.5001,-270.9909 283,-280.991 286.5001,-270.991 279.5001,-270.9909"/>
</g>
<!-- CUSTOM_INPUT_CONTROL_VALUE_ACCESSOR -->
<g id="node3" class="node">
<title>CUSTOM_INPUT_CONTROL_VALUE_ACCESSOR</title>
<ellipse fill="#fdb462" stroke="#000000" cx="522" cy="-104" rx="227.432" ry="18"/>
<text text-anchor="middle" x="522" y="-99.8" font-family="Times,serif" font-size="14.00" fill="#000000">CUSTOM_INPUT_CONTROL_VALUE_ACCESSOR</text>
</g>
<!-- CUSTOM_INPUT_CONTROL_VALUE_ACCESSOR&#45;&gt;TextInputComponent -->
<g id="edge2" class="edge">
<title>CUSTOM_INPUT_CONTROL_VALUE_ACCESSOR&#45;&gt;TextInputComponent</title>
<path fill="none" stroke="#000000" d="M453.7569,-121.4188C453.7569,-121.4188 453.7569,-140.6234 453.7569,-140.6234"/>
<polygon fill="#000000" stroke="#000000" points="450.257,-140.6234 453.7569,-150.6234 457.257,-140.6234 450.257,-140.6234"/>
</g>
<!-- BASE_IMPL_TEXT_INPUT -->
<g id="node4" class="node">
<title>BASE_IMPL_TEXT_INPUT</title>
<ellipse fill="#fdb462" stroke="#000000" cx="150" cy="-104" rx="126.2254" ry="18"/>
<text text-anchor="middle" x="150" y="-99.8" font-family="Times,serif" font-size="14.00" fill="#000000">BASE_IMPL_TEXT_INPUT</text>
</g>
<!-- BASE_IMPL_TEXT_INPUT&#45;&gt;TextInputComponent -->
<g id="edge3" class="edge">
<title>BASE_IMPL_TEXT_INPUT&#45;&gt;TextInputComponent</title>
<path fill="none" stroke="#000000" d="M251.7644,-114.8054C251.7644,-124.4296 251.7644,-137 251.7644,-137 251.7644,-137 408.2431,-137 408.2431,-137 408.2431,-137 408.2431,-140.7566 408.2431,-140.7566"/>
<polygon fill="#000000" stroke="#000000" points="404.7432,-140.7566 408.2431,-150.7566 411.7432,-140.7566 404.7432,-140.7566"/>
</g>
<!-- CommonModule -->
<g id="node5" class="node">
<title>CommonModule</title>
<polygon fill="#8dd3c7" stroke="#000000" points="338.6681,-187 335.6681,-191 314.6681,-191 311.6681,-187 227.3319,-187 227.3319,-151 338.6681,-151 338.6681,-187"/>
<text text-anchor="middle" x="283" y="-164.8" font-family="Times,serif" font-size="14.00" fill="#000000">CommonModule</text>
</g>
<!-- CommonModule&#45;&gt;AmexioTextInputModule -->
<g id="edge4" class="edge">
<title>CommonModule&#45;&gt;AmexioTextInputModule</title>
<path fill="none" stroke="#000000" d="M283,-187.1061C283,-187.1061 283,-205.991 283,-205.991"/>
<polygon fill="#000000" stroke="#000000" points="279.5001,-205.9909 283,-215.991 286.5001,-205.991 279.5001,-205.9909"/>
</g>
<!-- FormsModule -->
<g id="node6" class="node">
<title>FormsModule</title>
<polygon fill="#8dd3c7" stroke="#000000" points="209.8288,-187 206.8288,-191 185.8288,-191 182.8288,-187 114.1712,-187 114.1712,-151 209.8288,-151 209.8288,-187"/>
<text text-anchor="middle" x="162" y="-164.8" font-family="Times,serif" font-size="14.00" fill="#000000">FormsModule</text>
</g>
<!-- FormsModule&#45;&gt;AmexioTextInputModule -->
<g id="edge5" class="edge">
<title>FormsModule&#45;&gt;AmexioTextInputModule</title>
<path fill="none" stroke="#000000" d="M210.0909,-169C215.1061,-169 218.4152,-169 218.4152,-169 218.4152,-169 218.4152,-205.8939 218.4152,-205.8939"/>
<polygon fill="#000000" stroke="#000000" points="214.9152,-205.8938 218.4152,-215.8939 221.9152,-205.8939 214.9152,-205.8938"/>
</g>
</g>
</svg>
